<mxfile host="65bd71144e">
    <diagram id="slJMgCpvGCgUduUaEHDb" name="Page-1">
        <mxGraphModel dx="1314" dy="1752" grid="0" gridSize="10" guides="1" tooltips="1" connect="1" arrows="1" fold="1" page="0" pageScale="1" pageWidth="1920" pageHeight="1200" background="none" math="0" shadow="0">
            <root>
                <mxCell id="0"/>
                <mxCell id="1" parent="0"/>
                <mxCell id="176" value="Engine" style="swimlane;whiteSpace=wrap;html=1;shadow=0;fontSize=18;fontColor=#FFFFFF;sketch=1;curveFitting=1;jiggle=2;" vertex="1" parent="1">
                    <mxGeometry x="50" y="-970" width="3600" height="2550" as="geometry"/>
                </mxCell>
                <mxCell id="15" value="Testbed.exe" style="swimlane;html=1;fontSize=18;sketch=1;curveFitting=1;jiggle=2;" vertex="1" parent="176">
                    <mxGeometry x="120" y="1010" width="460" height="280" as="geometry"/>
                </mxCell>
                <mxCell id="10" value="Entry.c" style="swimlane;html=1;fontSize=18;sketch=1;curveFitting=1;jiggle=2;" vertex="1" parent="15">
                    <mxGeometry x="250" y="90" width="200" height="85" as="geometry"/>
                </mxCell>
                <mxCell id="17" value="CreateGame(game)" style="text;html=1;align=center;verticalAlign=middle;resizable=0;points=[];autosize=1;strokeColor=none;fillColor=none;fontSize=18;sketch=1;curveFitting=1;jiggle=2;" vertex="1" parent="10">
                    <mxGeometry x="10" y="30" width="180" height="40" as="geometry"/>
                </mxCell>
                <mxCell id="4" value="Game" style="swimlane;html=1;fontSize=18;sketch=1;curveFitting=1;jiggle=2;" vertex="1" parent="15">
                    <mxGeometry y="52.5" width="200" height="175" as="geometry"/>
                </mxCell>
                <mxCell id="6" value="game_initialize()" style="text;html=1;align=center;verticalAlign=middle;resizable=0;points=[];autosize=1;strokeColor=none;fillColor=none;fontSize=18;sketch=1;curveFitting=1;jiggle=2;" vertex="1" parent="4">
                    <mxGeometry x="15" y="30" width="150" height="40" as="geometry"/>
                </mxCell>
                <mxCell id="7" value="game_update()" style="text;html=1;align=center;verticalAlign=middle;resizable=0;points=[];autosize=1;strokeColor=none;fillColor=none;fontSize=18;sketch=1;curveFitting=1;jiggle=2;" vertex="1" parent="4">
                    <mxGeometry x="15" y="60" width="140" height="40" as="geometry"/>
                </mxCell>
                <mxCell id="8" value="game_render()" style="text;html=1;align=center;verticalAlign=middle;resizable=0;points=[];autosize=1;strokeColor=none;fillColor=none;fontSize=18;sketch=1;curveFitting=1;jiggle=2;" vertex="1" parent="4">
                    <mxGeometry x="15" y="90" width="140" height="40" as="geometry"/>
                </mxCell>
                <mxCell id="9" value="game_on_resize()" style="text;html=1;align=center;verticalAlign=middle;resizable=0;points=[];autosize=1;strokeColor=none;fillColor=none;fontSize=18;sketch=1;curveFitting=1;jiggle=2;" vertex="1" parent="4">
                    <mxGeometry x="15" y="120" width="170" height="40" as="geometry"/>
                </mxCell>
                <mxCell id="26" style="edgeStyle=none;html=1;fontSize=18;entryX=0;entryY=0.5;entryDx=0;entryDy=0;sketch=1;curveFitting=1;jiggle=2;" edge="1" parent="176" source="10" target="19">
                    <mxGeometry relative="1" as="geometry">
                        <mxPoint x="810" y="1250" as="targetPoint"/>
                    </mxGeometry>
                </mxCell>
                <mxCell id="30" style="edgeStyle=none;html=1;fontSize=18;sketch=1;curveFitting=1;jiggle=2;" edge="1" parent="176" source="28" target="17">
                    <mxGeometry relative="1" as="geometry"/>
                </mxCell>
                <mxCell id="18" value="Engine.dll" style="swimlane;whiteSpace=wrap;html=1;fontSize=18;shadow=0;sketch=1;curveFitting=1;jiggle=2;" vertex="1" parent="176">
                    <mxGeometry x="610" y="120" width="2730" height="2160" as="geometry"/>
                </mxCell>
                <mxCell id="19" value="Entry.h" style="swimlane;html=1;fontSize=18;sketch=1;curveFitting=1;jiggle=2;" vertex="1" parent="18">
                    <mxGeometry x="5" y="1040" width="200" height="70" as="geometry"/>
                </mxCell>
                <mxCell id="20" value="main()" style="text;html=1;align=center;verticalAlign=middle;resizable=0;points=[];autosize=1;strokeColor=none;fillColor=none;fontSize=18;sketch=1;curveFitting=1;jiggle=2;" vertex="1" parent="19">
                    <mxGeometry x="-5" y="30" width="70" height="40" as="geometry"/>
                </mxCell>
                <mxCell id="28" value="game_types.h" style="swimlane;html=1;fontSize=18;sketch=1;curveFitting=1;jiggle=2;" vertex="1" parent="18">
                    <mxGeometry x="15" y="820" width="200" height="80" as="geometry"/>
                </mxCell>
                <mxCell id="29" value="struct game" style="text;html=1;align=center;verticalAlign=middle;resizable=0;points=[];autosize=1;strokeColor=none;fillColor=none;fontSize=18;sketch=1;curveFitting=1;jiggle=2;" vertex="1" parent="28">
                    <mxGeometry y="25" width="120" height="40" as="geometry"/>
                </mxCell>
                <mxCell id="31" value="application layer" style="swimlane;html=1;fontSize=18;fillColor=default;sketch=1;curveFitting=1;jiggle=2;" vertex="1" parent="18">
                    <mxGeometry x="239" y="521" width="441" height="696" as="geometry"/>
                </mxCell>
                <mxCell id="177" value="application" style="swimlane;html=1;fontSize=18;fillColor=default;sketch=1;curveFitting=1;jiggle=2;" vertex="1" parent="31">
                    <mxGeometry x="54" y="47" width="339" height="596" as="geometry"/>
                </mxCell>
                <mxCell id="37" value="application_run()&lt;br&gt;(MAINLOOP)" style="text;html=1;align=center;verticalAlign=middle;resizable=0;points=[];autosize=1;strokeColor=none;fillColor=none;fontSize=18;sketch=1;curveFitting=1;jiggle=2;" vertex="1" parent="177">
                    <mxGeometry x="82" y="334.5" width="160" height="60" as="geometry"/>
                </mxCell>
                <mxCell id="36" value="application_create()" style="text;html=1;align=center;verticalAlign=middle;resizable=0;points=[];autosize=1;strokeColor=none;fillColor=none;fontSize=18;sketch=1;curveFitting=1;jiggle=2;" vertex="1" parent="177">
                    <mxGeometry x="82" y="224.5" width="180" height="40" as="geometry"/>
                </mxCell>
                <mxCell id="40" value="&lt;div style=&quot;background-color: rgb(29, 32, 33); font-family: Consolas, &amp;quot;Courier New&amp;quot;, monospace; font-weight: 1; font-size: 16px; line-height: 22px;&quot;&gt;application_state&lt;/div&gt;" style="swimlane;html=1;fontSize=18;sketch=1;curveFitting=1;jiggle=2;" vertex="1" parent="177">
                    <mxGeometry x="72" y="454.5" width="200" height="40" as="geometry"/>
                </mxCell>
                <mxCell id="41" value="&lt;div style=&quot;background-color: rgb(29, 32, 33); font-family: Consolas, &amp;quot;Courier New&amp;quot;, monospace; font-weight: 1; font-size: 16px; line-height: 22px;&quot;&gt;application_config&lt;/div&gt;" style="swimlane;html=1;fontSize=18;sketch=1;curveFitting=1;jiggle=2;" vertex="1" parent="177">
                    <mxGeometry x="72" y="114.5" width="200" height="40" as="geometry"/>
                </mxCell>
                <mxCell id="50" value="get_framebuffer_size()" style="text;html=1;align=center;verticalAlign=middle;resizable=0;points=[];autosize=1;strokeColor=none;fillColor=none;fontSize=18;sketch=1;curveFitting=1;jiggle=2;" vertex="1" parent="177">
                    <mxGeometry x="72" y="414.5" width="200" height="40" as="geometry"/>
                </mxCell>
                <mxCell id="120" value="&lt;div style=&quot;background-color: rgb(29, 32, 33); font-family: Consolas, &amp;quot;Courier New&amp;quot;, monospace; font-weight: 1; font-size: 16px; line-height: 22px;&quot;&gt;subsystem_initialize&lt;/div&gt;" style="swimlane;html=1;fontSize=18;sketch=1;curveFitting=1;jiggle=2;" vertex="1" parent="177">
                    <mxGeometry x="72" y="174.5" width="200" height="40" as="geometry"/>
                </mxCell>
                <mxCell id="42" value="platform layer" style="swimlane;html=1;fontSize=18;sketch=1;curveFitting=1;jiggle=2;" vertex="1" parent="18">
                    <mxGeometry x="780" y="770" width="630" height="620" as="geometry"/>
                </mxCell>
                <mxCell id="47" value="platform" style="swimlane;html=1;fontSize=18;fontColor=#FFFFFF;sketch=1;curveFitting=1;jiggle=2;" vertex="1" parent="42">
                    <mxGeometry x="10" y="60" width="280" height="330" as="geometry"/>
                </mxCell>
                <mxCell id="49" value="&lt;div style=&quot;background-color: rgb(29, 32, 33); font-family: Consolas, &amp;quot;Courier New&amp;quot;, monospace; font-weight: 1; font-size: 16px; line-height: 22px;&quot;&gt;platform_state&lt;/div&gt;" style="swimlane;html=1;fontSize=18;sketch=1;curveFitting=1;jiggle=2;" vertex="1" parent="47">
                    <mxGeometry x="10" y="30" width="200" height="40" as="geometry"/>
                </mxCell>
                <mxCell id="105" value="&lt;div style=&quot;background-color: rgb(29, 32, 33); font-family: Consolas, &amp;quot;Courier New&amp;quot;, monospace; font-weight: 1; font-size: 16px; line-height: 22px;&quot;&gt;subsystem_specific_declare&lt;/div&gt;" style="swimlane;html=1;fontSize=18;sketch=1;curveFitting=1;jiggle=2;" vertex="1" parent="47">
                    <mxGeometry x="25" y="290" width="235" height="40" as="geometry"/>
                </mxCell>
                <mxCell id="106" value="platform_startup" style="text;html=1;align=center;verticalAlign=middle;resizable=0;points=[];autosize=1;strokeColor=none;fillColor=none;fontSize=18;sketch=1;curveFitting=1;jiggle=2;" vertex="1" parent="47">
                    <mxGeometry x="35" y="70" width="150" height="40" as="geometry"/>
                </mxCell>
                <mxCell id="107" value="platform_shutdown" style="text;html=1;align=center;verticalAlign=middle;resizable=0;points=[];autosize=1;strokeColor=none;fillColor=none;fontSize=18;sketch=1;curveFitting=1;jiggle=2;" vertex="1" parent="47">
                    <mxGeometry x="25" y="110" width="170" height="40" as="geometry"/>
                </mxCell>
                <mxCell id="108" value="platform_message" style="text;html=1;align=center;verticalAlign=middle;resizable=0;points=[];autosize=1;strokeColor=none;fillColor=none;fontSize=18;sketch=1;curveFitting=1;jiggle=2;" vertex="1" parent="47">
                    <mxGeometry x="25" y="160" width="170" height="40" as="geometry"/>
                </mxCell>
                <mxCell id="88" style="edgeStyle=none;html=1;entryX=1;entryY=0.5;entryDx=0;entryDy=0;fontSize=18;fontColor=#FFFFFF;sketch=1;curveFitting=1;jiggle=2;" edge="1" parent="42" source="84" target="47">
                    <mxGeometry relative="1" as="geometry"/>
                </mxCell>
                <mxCell id="84" value="platform_win32" style="swimlane;html=1;fontSize=18;fontColor=#FFFFFF;sketch=1;curveFitting=1;jiggle=2;" vertex="1" parent="42">
                    <mxGeometry x="350" y="330" width="237.5" height="210" as="geometry"/>
                </mxCell>
                <mxCell id="113" value="win32_startup" style="text;html=1;align=center;verticalAlign=middle;resizable=0;points=[];autosize=1;strokeColor=none;fillColor=none;fontSize=18;sketch=1;curveFitting=1;jiggle=2;" vertex="1" parent="84">
                    <mxGeometry x="40" y="30" width="140" height="40" as="geometry"/>
                </mxCell>
                <mxCell id="114" value="win32_window&lt;br&gt;.&lt;br&gt;.&lt;br&gt;." style="text;html=1;align=center;verticalAlign=middle;resizable=0;points=[];autosize=1;strokeColor=none;fillColor=none;fontSize=18;sketch=1;curveFitting=1;jiggle=2;" vertex="1" parent="84">
                    <mxGeometry x="40" y="70" width="140" height="100" as="geometry"/>
                </mxCell>
                <mxCell id="117" value="&lt;div style=&quot;background-color: rgb(29, 32, 33); font-family: Consolas, &amp;quot;Courier New&amp;quot;, monospace; font-weight: 1; font-size: 16px; line-height: 22px;&quot;&gt;subsystem_specific_defines&lt;/div&gt;" style="swimlane;html=1;fontSize=18;sketch=1;curveFitting=1;jiggle=2;" vertex="1" parent="84">
                    <mxGeometry x="1.25" y="170" width="235" height="40" as="geometry"/>
                </mxCell>
                <mxCell id="89" style="edgeStyle=none;html=1;entryX=1;entryY=0.5;entryDx=0;entryDy=0;fontSize=18;fontColor=#FFFFFF;sketch=1;curveFitting=1;jiggle=2;" edge="1" parent="42" source="86" target="47">
                    <mxGeometry relative="1" as="geometry"/>
                </mxCell>
                <mxCell id="86" value="platform_linux" style="swimlane;html=1;fontSize=18;fontColor=#FFFFFF;sketch=1;curveFitting=1;jiggle=2;" vertex="1" parent="42">
                    <mxGeometry x="350" y="40" width="237.5" height="210" as="geometry"/>
                </mxCell>
                <mxCell id="115" value="linux_startup" style="text;html=1;align=center;verticalAlign=middle;resizable=0;points=[];autosize=1;strokeColor=none;fillColor=none;fontSize=18;sketch=1;curveFitting=1;jiggle=2;" vertex="1" parent="86">
                    <mxGeometry x="45" y="40" width="130" height="40" as="geometry"/>
                </mxCell>
                <mxCell id="116" value="linux_window&lt;br&gt;.&lt;br&gt;.&lt;br&gt;." style="text;html=1;align=center;verticalAlign=middle;resizable=0;points=[];autosize=1;strokeColor=none;fillColor=none;fontSize=18;sketch=1;curveFitting=1;jiggle=2;" vertex="1" parent="86">
                    <mxGeometry x="45" y="80" width="130" height="100" as="geometry"/>
                </mxCell>
                <mxCell id="119" value="&lt;div style=&quot;background-color: rgb(29, 32, 33); font-family: Consolas, &amp;quot;Courier New&amp;quot;, monospace; font-weight: 1; font-size: 16px; line-height: 22px;&quot;&gt;subsystem_specific_defines&lt;/div&gt;" style="swimlane;html=1;fontSize=18;sketch=1;curveFitting=1;jiggle=2;" vertex="1" parent="86">
                    <mxGeometry x="1.25" y="170" width="235" height="40" as="geometry"/>
                </mxCell>
                <mxCell id="125" value="Renderer" style="swimlane;html=1;fontSize=18;fontColor=#FFFFFF;sketch=1;curveFitting=1;jiggle=2;" vertex="1" parent="18">
                    <mxGeometry x="790" y="50" width="1460" height="680" as="geometry"/>
                </mxCell>
                <mxCell id="127" value="renderer_frontend" style="swimlane;html=1;fontSize=18;fontColor=#FFFFFF;startSize=23;sketch=1;curveFitting=1;jiggle=2;" vertex="1" parent="125">
                    <mxGeometry x="20" y="300" width="370" height="210" as="geometry"/>
                </mxCell>
                <mxCell id="165" value="renderer_initialize" style="text;html=1;align=center;verticalAlign=middle;resizable=0;points=[];autosize=1;strokeColor=none;fillColor=none;fontSize=18;fontColor=#FFFFFF;sketch=1;curveFitting=1;jiggle=2;" vertex="1" parent="127">
                    <mxGeometry x="85" y="30" width="170" height="40" as="geometry"/>
                </mxCell>
                <mxCell id="166" value="renderer_shutdown" style="text;html=1;align=center;verticalAlign=middle;resizable=0;points=[];autosize=1;strokeColor=none;fillColor=none;fontSize=18;fontColor=#FFFFFF;sketch=1;curveFitting=1;jiggle=2;" vertex="1" parent="127">
                    <mxGeometry x="80" y="70" width="180" height="40" as="geometry"/>
                </mxCell>
                <mxCell id="167" value="renderer_resize" style="text;html=1;align=center;verticalAlign=middle;resizable=0;points=[];autosize=1;strokeColor=none;fillColor=none;fontSize=18;fontColor=#FFFFFF;sketch=1;curveFitting=1;jiggle=2;" vertex="1" parent="127">
                    <mxGeometry x="100" y="110" width="150" height="40" as="geometry"/>
                </mxCell>
                <mxCell id="168" value="renderer_draw_frame" style="text;html=1;align=center;verticalAlign=middle;resizable=0;points=[];autosize=1;strokeColor=none;fillColor=none;fontSize=18;fontColor=#FFFFFF;sketch=1;curveFitting=1;jiggle=2;" vertex="1" parent="127">
                    <mxGeometry x="75" y="150" width="200" height="40" as="geometry"/>
                </mxCell>
                <mxCell id="126" value="renderer_backend" style="swimlane;html=1;fontSize=18;fontColor=#FFFFFF;startSize=23;sketch=1;curveFitting=1;jiggle=2;" vertex="1" parent="125">
                    <mxGeometry x="530" y="100" width="370" height="320" as="geometry"/>
                </mxCell>
                <mxCell id="129" value="renderer_backend_destroy" style="text;html=1;align=center;verticalAlign=middle;resizable=0;points=[];autosize=1;strokeColor=none;fillColor=none;fontSize=18;fontColor=#FFFFFF;sketch=1;curveFitting=1;jiggle=2;" vertex="1" parent="126">
                    <mxGeometry x="65" y="280" width="240" height="40" as="geometry"/>
                </mxCell>
                <mxCell id="128" value="renderer_backend_create" style="text;html=1;align=center;verticalAlign=middle;resizable=0;points=[];autosize=1;strokeColor=none;fillColor=none;fontSize=18;fontColor=#FFFFFF;sketch=1;curveFitting=1;jiggle=2;" vertex="1" parent="126">
                    <mxGeometry x="70" y="230" width="230" height="40" as="geometry"/>
                </mxCell>
                <mxCell id="130" value="renderer_backend" style="swimlane;html=1;fontSize=18;fontColor=#FFFFFF;sketch=1;curveFitting=1;jiggle=2;" vertex="1" parent="126">
                    <mxGeometry x="55" y="30" width="250" height="200" as="geometry"/>
                </mxCell>
                <mxCell id="132" value="initialize" style="text;html=1;align=center;verticalAlign=middle;resizable=0;points=[];autosize=1;strokeColor=none;fillColor=none;fontSize=18;fontColor=#FFFFFF;sketch=1;curveFitting=1;jiggle=2;" vertex="1" parent="130">
                    <mxGeometry x="70" y="20" width="90" height="40" as="geometry"/>
                </mxCell>
                <mxCell id="133" value="shutdown" style="text;html=1;align=center;verticalAlign=middle;resizable=0;points=[];autosize=1;strokeColor=none;fillColor=none;fontSize=18;fontColor=#FFFFFF;sketch=1;curveFitting=1;jiggle=2;" vertex="1" parent="130">
                    <mxGeometry x="65" y="50" width="100" height="40" as="geometry"/>
                </mxCell>
                <mxCell id="134" value="resize" style="text;html=1;align=center;verticalAlign=middle;resizable=0;points=[];autosize=1;strokeColor=none;fillColor=none;fontSize=18;fontColor=#FFFFFF;sketch=1;curveFitting=1;jiggle=2;" vertex="1" parent="130">
                    <mxGeometry x="80" y="80" width="70" height="40" as="geometry"/>
                </mxCell>
                <mxCell id="135" value="begin_frame" style="text;html=1;align=center;verticalAlign=middle;resizable=0;points=[];autosize=1;strokeColor=none;fillColor=none;fontSize=18;fontColor=#FFFFFF;sketch=1;curveFitting=1;jiggle=2;" vertex="1" parent="130">
                    <mxGeometry x="55" y="110" width="120" height="40" as="geometry"/>
                </mxCell>
                <mxCell id="141" value="end_frame" style="text;html=1;align=center;verticalAlign=middle;resizable=0;points=[];autosize=1;strokeColor=none;fillColor=none;fontSize=18;fontColor=#FFFFFF;sketch=1;curveFitting=1;jiggle=2;" vertex="1" parent="130">
                    <mxGeometry x="60" y="150" width="110" height="40" as="geometry"/>
                </mxCell>
                <mxCell id="142" value="vulkan_backend" style="swimlane;html=1;fontSize=18;fontColor=#FFFFFF;startSize=23;sketch=1;curveFitting=1;jiggle=2;" vertex="1" parent="125">
                    <mxGeometry x="1025" y="90" width="370" height="270" as="geometry"/>
                </mxCell>
                <mxCell id="146" value="initialize" style="text;html=1;align=center;verticalAlign=middle;resizable=0;points=[];autosize=1;strokeColor=none;fillColor=none;fontSize=18;fontColor=#FFFFFF;sketch=1;curveFitting=1;jiggle=2;" vertex="1" parent="142">
                    <mxGeometry x="135" y="40" width="90" height="40" as="geometry"/>
                </mxCell>
                <mxCell id="147" value="shutdown" style="text;html=1;align=center;verticalAlign=middle;resizable=0;points=[];autosize=1;strokeColor=none;fillColor=none;fontSize=18;fontColor=#FFFFFF;sketch=1;curveFitting=1;jiggle=2;" vertex="1" parent="142">
                    <mxGeometry x="130" y="80" width="100" height="40" as="geometry"/>
                </mxCell>
                <mxCell id="148" value="resize" style="text;html=1;align=center;verticalAlign=middle;resizable=0;points=[];autosize=1;strokeColor=none;fillColor=none;fontSize=18;fontColor=#FFFFFF;sketch=1;curveFitting=1;jiggle=2;" vertex="1" parent="142">
                    <mxGeometry x="145" y="120" width="70" height="40" as="geometry"/>
                </mxCell>
                <mxCell id="149" value="begin_frame" style="text;html=1;align=center;verticalAlign=middle;resizable=0;points=[];autosize=1;strokeColor=none;fillColor=none;fontSize=18;fontColor=#FFFFFF;sketch=1;curveFitting=1;jiggle=2;" vertex="1" parent="142">
                    <mxGeometry x="120" y="160" width="120" height="40" as="geometry"/>
                </mxCell>
                <mxCell id="150" value="end_frame" style="text;html=1;align=center;verticalAlign=middle;resizable=0;points=[];autosize=1;strokeColor=none;fillColor=none;fontSize=18;fontColor=#FFFFFF;sketch=1;curveFitting=1;jiggle=2;" vertex="1" parent="142">
                    <mxGeometry x="130" y="210" width="110" height="40" as="geometry"/>
                </mxCell>
                <mxCell id="151" style="edgeStyle=none;html=1;entryX=0.016;entryY=0.483;entryDx=0;entryDy=0;entryPerimeter=0;fontSize=18;fontColor=#FFFFFF;sketch=1;curveFitting=1;jiggle=2;" edge="1" parent="125" source="128" target="146">
                    <mxGeometry relative="1" as="geometry"/>
                </mxCell>
                <mxCell id="152" value="dx12_backend" style="swimlane;html=1;fontSize=18;fontColor=#FFFFFF;startSize=23;sketch=1;curveFitting=1;jiggle=2;" vertex="1" parent="125">
                    <mxGeometry x="1025" y="380" width="370" height="270" as="geometry"/>
                </mxCell>
                <mxCell id="153" value="initialize" style="text;html=1;align=center;verticalAlign=middle;resizable=0;points=[];autosize=1;strokeColor=none;fillColor=none;fontSize=18;fontColor=#FFFFFF;sketch=1;curveFitting=1;jiggle=2;" vertex="1" parent="152">
                    <mxGeometry x="135" y="40" width="90" height="40" as="geometry"/>
                </mxCell>
                <mxCell id="154" value="shutdown" style="text;html=1;align=center;verticalAlign=middle;resizable=0;points=[];autosize=1;strokeColor=none;fillColor=none;fontSize=18;fontColor=#FFFFFF;sketch=1;curveFitting=1;jiggle=2;" vertex="1" parent="152">
                    <mxGeometry x="130" y="80" width="100" height="40" as="geometry"/>
                </mxCell>
                <mxCell id="155" value="resize" style="text;html=1;align=center;verticalAlign=middle;resizable=0;points=[];autosize=1;strokeColor=none;fillColor=none;fontSize=18;fontColor=#FFFFFF;sketch=1;curveFitting=1;jiggle=2;" vertex="1" parent="152">
                    <mxGeometry x="145" y="120" width="70" height="40" as="geometry"/>
                </mxCell>
                <mxCell id="156" value="begin_frame" style="text;html=1;align=center;verticalAlign=middle;resizable=0;points=[];autosize=1;strokeColor=none;fillColor=none;fontSize=18;fontColor=#FFFFFF;sketch=1;curveFitting=1;jiggle=2;" vertex="1" parent="152">
                    <mxGeometry x="120" y="160" width="120" height="40" as="geometry"/>
                </mxCell>
                <mxCell id="157" value="end_frame" style="text;html=1;align=center;verticalAlign=middle;resizable=0;points=[];autosize=1;strokeColor=none;fillColor=none;fontSize=18;fontColor=#FFFFFF;sketch=1;curveFitting=1;jiggle=2;" vertex="1" parent="152">
                    <mxGeometry x="130" y="210" width="110" height="40" as="geometry"/>
                </mxCell>
                <mxCell id="164" style="edgeStyle=none;html=1;entryX=-0.025;entryY=0.504;entryDx=0;entryDy=0;entryPerimeter=0;fontSize=18;fontColor=#FFFFFF;sketch=1;curveFitting=1;jiggle=2;" edge="1" parent="125" source="128" target="153">
                    <mxGeometry relative="1" as="geometry"/>
                </mxCell>
                <mxCell id="169" style="edgeStyle=none;html=1;entryX=0.003;entryY=0.511;entryDx=0;entryDy=0;entryPerimeter=0;fontSize=18;fontColor=#FFFFFF;sketch=1;curveFitting=1;jiggle=2;" edge="1" parent="125" source="165" target="128">
                    <mxGeometry relative="1" as="geometry"/>
                </mxCell>
                <mxCell id="170" style="edgeStyle=none;html=1;entryX=-0.005;entryY=0.633;entryDx=0;entryDy=0;entryPerimeter=0;fontSize=18;fontColor=#FFFFFF;sketch=1;curveFitting=1;jiggle=2;" edge="1" parent="125" source="166" target="129">
                    <mxGeometry relative="1" as="geometry"/>
                </mxCell>
                <mxCell id="171" style="edgeStyle=none;html=1;entryX=-0.071;entryY=0.5;entryDx=0;entryDy=0;entryPerimeter=0;fontSize=18;fontColor=#FFFFFF;sketch=1;curveFitting=1;jiggle=2;" edge="1" parent="125" source="167" target="134">
                    <mxGeometry relative="1" as="geometry"/>
                </mxCell>
                <mxCell id="172" style="edgeStyle=none;html=1;entryX=0.016;entryY=0.319;entryDx=0;entryDy=0;entryPerimeter=0;fontSize=18;fontColor=#FFFFFF;sketch=1;curveFitting=1;jiggle=2;" edge="1" parent="125" source="168" target="135">
                    <mxGeometry relative="1" as="geometry"/>
                </mxCell>
                <mxCell id="173" style="edgeStyle=none;html=1;entryX=0.018;entryY=0.39;entryDx=0;entryDy=0;entryPerimeter=0;fontSize=18;fontColor=#FFFFFF;sketch=1;curveFitting=1;jiggle=2;" edge="1" parent="125" source="168" target="141">
                    <mxGeometry relative="1" as="geometry"/>
                </mxCell>
                <mxCell id="51" value="Subsystems" style="swimlane;html=1;fontSize=18;fontColor=#FFFFFF;sketch=1;curveFitting=1;jiggle=2;" vertex="1" parent="18">
                    <mxGeometry x="530" y="1500" width="1400" height="460" as="geometry"/>
                </mxCell>
                <mxCell id="53" value="clock" style="swimlane;html=1;fontSize=18;fontColor=#FFFFFF;sketch=1;curveFitting=1;jiggle=2;" vertex="1" parent="51">
                    <mxGeometry x="1070" y="40" width="180" height="140" as="geometry"/>
                </mxCell>
                <mxCell id="54" value="clock_update" style="text;html=1;align=center;verticalAlign=middle;resizable=0;points=[];autosize=1;strokeColor=none;fillColor=none;fontSize=18;fontColor=#FFFFFF;sketch=1;curveFitting=1;jiggle=2;" vertex="1" parent="53">
                    <mxGeometry x="30" y="30" width="130" height="40" as="geometry"/>
                </mxCell>
                <mxCell id="55" value="clock_start" style="text;html=1;align=center;verticalAlign=middle;resizable=0;points=[];autosize=1;strokeColor=none;fillColor=none;fontSize=18;fontColor=#FFFFFF;sketch=1;curveFitting=1;jiggle=2;" vertex="1" parent="53">
                    <mxGeometry x="40" y="60" width="110" height="40" as="geometry"/>
                </mxCell>
                <mxCell id="56" value="clock_stop" style="text;html=1;align=center;verticalAlign=middle;resizable=0;points=[];autosize=1;strokeColor=none;fillColor=none;fontSize=18;fontColor=#FFFFFF;sketch=1;curveFitting=1;jiggle=2;" vertex="1" parent="53">
                    <mxGeometry x="40" y="90" width="110" height="40" as="geometry"/>
                </mxCell>
                <mxCell id="124" style="edgeStyle=none;html=1;entryX=0.5;entryY=1;entryDx=0;entryDy=0;fontSize=18;fontColor=#FFFFFF;sketch=1;curveFitting=1;jiggle=2;" edge="1" parent="51" source="59" target="65">
                    <mxGeometry relative="1" as="geometry"/>
                </mxCell>
                <mxCell id="59" value="event" style="swimlane;html=1;fontSize=18;fontColor=#FFFFFF;sketch=1;curveFitting=1;jiggle=2;" vertex="1" parent="51">
                    <mxGeometry x="60" y="40" width="200" height="200" as="geometry"/>
                </mxCell>
                <mxCell id="60" value="event_initialize" style="text;html=1;align=center;verticalAlign=middle;resizable=0;points=[];autosize=1;strokeColor=none;fillColor=none;fontSize=18;fontColor=#FFFFFF;sketch=1;curveFitting=1;jiggle=2;" vertex="1" parent="59">
                    <mxGeometry x="30" y="70" width="140" height="40" as="geometry"/>
                </mxCell>
                <mxCell id="61" value="event_shutdown" style="text;html=1;align=center;verticalAlign=middle;resizable=0;points=[];autosize=1;strokeColor=none;fillColor=none;fontSize=18;fontColor=#FFFFFF;sketch=1;curveFitting=1;jiggle=2;" vertex="1" parent="59">
                    <mxGeometry x="25" y="100" width="150" height="40" as="geometry"/>
                </mxCell>
                <mxCell id="62" value="event_register" style="text;html=1;align=center;verticalAlign=middle;resizable=0;points=[];autosize=1;strokeColor=none;fillColor=none;fontSize=18;fontColor=#FFFFFF;sketch=1;curveFitting=1;jiggle=2;" vertex="1" parent="59">
                    <mxGeometry x="30" y="130" width="140" height="40" as="geometry"/>
                </mxCell>
                <mxCell id="63" value="&lt;div style=&quot;background-color: rgb(29, 32, 33); font-family: Consolas, &amp;quot;Courier New&amp;quot;, monospace; font-weight: 1; font-size: 16px; line-height: 22px;&quot;&gt;event_context&lt;/div&gt;" style="swimlane;html=1;fontSize=18;sketch=1;curveFitting=1;jiggle=2;" vertex="1" parent="59">
                    <mxGeometry y="30" width="200" height="40" as="geometry"/>
                </mxCell>
                <mxCell id="64" value="event_unregister" style="text;html=1;align=center;verticalAlign=middle;resizable=0;points=[];autosize=1;strokeColor=none;fillColor=none;fontSize=18;fontColor=#FFFFFF;sketch=1;curveFitting=1;jiggle=2;" vertex="1" parent="59">
                    <mxGeometry x="20" y="160" width="160" height="40" as="geometry"/>
                </mxCell>
                <mxCell id="69" value="logger" style="swimlane;html=1;fontSize=18;fontColor=#FFFFFF;sketch=1;curveFitting=1;jiggle=2;" vertex="1" parent="51">
                    <mxGeometry x="720" y="40" width="150" height="140" as="geometry"/>
                </mxCell>
                <mxCell id="70" value="fatal" style="text;html=1;align=center;verticalAlign=middle;resizable=0;points=[];autosize=1;strokeColor=none;fillColor=none;fontSize=18;fontColor=#FFFFFF;sketch=1;curveFitting=1;jiggle=2;" vertex="1" parent="69">
                    <mxGeometry x="5" y="20" width="60" height="40" as="geometry"/>
                </mxCell>
                <mxCell id="71" value="error" style="text;html=1;align=center;verticalAlign=middle;resizable=0;points=[];autosize=1;strokeColor=none;fillColor=none;fontSize=18;fontColor=#FFFFFF;sketch=1;curveFitting=1;jiggle=2;" vertex="1" parent="69">
                    <mxGeometry x="5" y="100" width="60" height="40" as="geometry"/>
                </mxCell>
                <mxCell id="72" value="warn" style="text;html=1;align=center;verticalAlign=middle;resizable=0;points=[];autosize=1;strokeColor=none;fillColor=none;fontSize=18;fontColor=#FFFFFF;sketch=1;curveFitting=1;jiggle=2;" vertex="1" parent="69">
                    <mxGeometry x="5" y="60" width="60" height="40" as="geometry"/>
                </mxCell>
                <mxCell id="73" value="debug" style="text;html=1;align=center;verticalAlign=middle;resizable=0;points=[];autosize=1;strokeColor=none;fillColor=none;fontSize=18;fontColor=#FFFFFF;sketch=1;curveFitting=1;jiggle=2;" vertex="1" parent="69">
                    <mxGeometry x="65" y="20" width="70" height="40" as="geometry"/>
                </mxCell>
                <mxCell id="74" value="info" style="text;html=1;align=center;verticalAlign=middle;resizable=0;points=[];autosize=1;strokeColor=none;fillColor=none;fontSize=18;fontColor=#FFFFFF;sketch=1;curveFitting=1;jiggle=2;" vertex="1" parent="69">
                    <mxGeometry x="75" y="60" width="50" height="40" as="geometry"/>
                </mxCell>
                <mxCell id="75" value="trace" style="text;html=1;align=center;verticalAlign=middle;resizable=0;points=[];autosize=1;strokeColor=none;fillColor=none;fontSize=18;fontColor=#FFFFFF;sketch=1;curveFitting=1;jiggle=2;" vertex="1" parent="69">
                    <mxGeometry x="70" y="100" width="60" height="40" as="geometry"/>
                </mxCell>
                <mxCell id="123" style="edgeStyle=none;html=1;entryX=0.5;entryY=0;entryDx=0;entryDy=0;fontSize=18;fontColor=#FFFFFF;sketch=1;curveFitting=1;jiggle=2;" edge="1" parent="51" source="76" target="121">
                    <mxGeometry relative="1" as="geometry"/>
                </mxCell>
                <mxCell id="76" value="memory" style="swimlane;html=1;fontSize=18;fontColor=#FFFFFF;sketch=1;curveFitting=1;jiggle=2;" vertex="1" parent="51">
                    <mxGeometry x="880" y="40" width="180" height="140" as="geometry"/>
                </mxCell>
                <mxCell id="80" value="string" style="swimlane;html=1;fontSize=18;fontColor=#FFFFFF;sketch=1;curveFitting=1;jiggle=2;" vertex="1" parent="51">
                    <mxGeometry x="530" y="40" width="170" height="150" as="geometry"/>
                </mxCell>
                <mxCell id="121" value="custom_data_structure" style="swimlane;html=1;fontSize=18;fontColor=#FFFFFF;sketch=1;curveFitting=1;jiggle=2;" vertex="1" parent="51">
                    <mxGeometry x="650" y="250" width="250" height="140" as="geometry"/>
                </mxCell>
                <mxCell id="122" value="&lt;div style=&quot;background-color: rgb(29, 32, 33); font-family: Consolas, &amp;quot;Courier New&amp;quot;, monospace; font-weight: 1; font-size: 16px; line-height: 22px;&quot;&gt;dynamic_array&lt;/div&gt;" style="swimlane;html=1;fontSize=18;sketch=1;curveFitting=1;jiggle=2;" vertex="1" parent="121">
                    <mxGeometry x="25" y="30" width="200" height="40" as="geometry"/>
                </mxCell>
                <mxCell id="65" value="input" style="swimlane;html=1;fontSize=18;fontColor=#FFFFFF;sketch=1;curveFitting=1;jiggle=2;" vertex="1" parent="51">
                    <mxGeometry x="340" y="50" width="150" height="140" as="geometry"/>
                </mxCell>
                <mxCell id="66" value="key" style="text;html=1;align=center;verticalAlign=middle;resizable=0;points=[];autosize=1;strokeColor=none;fillColor=none;fontSize=18;fontColor=#FFFFFF;sketch=1;curveFitting=1;jiggle=2;" vertex="1" parent="65">
                    <mxGeometry x="50" y="30" width="50" height="40" as="geometry"/>
                </mxCell>
                <mxCell id="67" value="mouse" style="text;html=1;align=center;verticalAlign=middle;resizable=0;points=[];autosize=1;strokeColor=none;fillColor=none;fontSize=18;fontColor=#FFFFFF;sketch=1;curveFitting=1;jiggle=2;" vertex="1" parent="65">
                    <mxGeometry x="35" y="60" width="80" height="40" as="geometry"/>
                </mxCell>
                <mxCell id="68" value="key_binding" style="text;html=1;align=center;verticalAlign=middle;resizable=0;points=[];autosize=1;strokeColor=none;fillColor=none;fontSize=18;fontColor=#FFFFFF;sketch=1;curveFitting=1;jiggle=2;" vertex="1" parent="65">
                    <mxGeometry x="15" y="90" width="120" height="40" as="geometry"/>
                </mxCell>
                <mxCell id="104" style="edgeStyle=none;html=1;entryX=0.5;entryY=1;entryDx=0;entryDy=0;fontSize=18;fontColor=#FFFFFF;sketch=1;curveFitting=1;jiggle=2;" edge="1" parent="18" source="53" target="47">
                    <mxGeometry relative="1" as="geometry"/>
                </mxCell>
                <mxCell id="102" style="edgeStyle=none;html=1;entryX=0.75;entryY=1;entryDx=0;entryDy=0;fontSize=18;fontColor=#FFFFFF;sketch=1;curveFitting=1;jiggle=2;" edge="1" parent="18" source="69" target="47">
                    <mxGeometry relative="1" as="geometry"/>
                </mxCell>
                <mxCell id="103" style="edgeStyle=none;html=1;fontSize=18;fontColor=#FFFFFF;entryX=0.75;entryY=1;entryDx=0;entryDy=0;sketch=1;curveFitting=1;jiggle=2;" edge="1" parent="18" source="76" target="47">
                    <mxGeometry relative="1" as="geometry">
                        <mxPoint x="1980" y="1310" as="targetPoint"/>
                    </mxGeometry>
                </mxCell>
                <mxCell id="100" style="edgeStyle=none;html=1;entryX=0.5;entryY=1;entryDx=0;entryDy=0;fontSize=18;fontColor=#FFFFFF;sketch=1;curveFitting=1;jiggle=2;" edge="1" parent="18" source="80" target="47">
                    <mxGeometry relative="1" as="geometry"/>
                </mxCell>
                <mxCell id="101" style="edgeStyle=none;html=1;fontSize=18;fontColor=#FFFFFF;entryX=0.5;entryY=1;entryDx=0;entryDy=0;sketch=1;curveFitting=1;jiggle=2;" edge="1" parent="18" source="65" target="47">
                    <mxGeometry relative="1" as="geometry">
                        <mxPoint x="1920" y="1310" as="targetPoint"/>
                    </mxGeometry>
                </mxCell>
                <mxCell id="111" style="edgeStyle=none;html=1;fontSize=18;fontColor=#FFFFFF;entryX=-0.017;entryY=0.535;entryDx=0;entryDy=0;entryPerimeter=0;sketch=1;curveFitting=1;jiggle=2;" edge="1" parent="18" source="20" target="37">
                    <mxGeometry relative="1" as="geometry">
                        <mxPoint x="320" y="270" as="targetPoint"/>
                    </mxGeometry>
                </mxCell>
                <mxCell id="110" style="edgeStyle=none;html=1;entryX=-0.011;entryY=0.463;entryDx=0;entryDy=0;entryPerimeter=0;fontSize=18;fontColor=#FFFFFF;sketch=1;curveFitting=1;jiggle=2;" edge="1" parent="18" source="20" target="36">
                    <mxGeometry relative="1" as="geometry"/>
                </mxCell>
                <mxCell id="174" style="edgeStyle=none;html=1;fontSize=18;fontColor=#FFFFFF;sketch=1;curveFitting=1;jiggle=2;" edge="1" parent="18" source="36" target="165">
                    <mxGeometry relative="1" as="geometry"/>
                </mxCell>
                <mxCell id="33" style="edgeStyle=none;html=1;entryX=1;entryY=0.625;entryDx=0;entryDy=0;entryPerimeter=0;fontSize=18;exitX=0.25;exitY=0;exitDx=0;exitDy=0;sketch=1;curveFitting=1;jiggle=2;" edge="1" parent="18" source="41" target="29">
                    <mxGeometry relative="1" as="geometry">
                        <mxPoint x="330" y="170" as="sourcePoint"/>
                    </mxGeometry>
                </mxCell>
                <mxCell id="179" style="edgeStyle=none;sketch=1;hachureGap=4;jiggle=2;curveFitting=1;html=1;entryX=0.011;entryY=0.876;entryDx=0;entryDy=0;entryPerimeter=0;fontFamily=Architects Daughter;fontSource=https%3A%2F%2Ffonts.googleapis.com%2Fcss%3Ffamily%3DArchitects%2BDaughter;fontSize=16;" edge="1" parent="18" source="36" target="106">
                    <mxGeometry relative="1" as="geometry"/>
                </mxCell>
            </root>
        </mxGraphModel>
    </diagram>
</mxfile>